<?xml version="1.0" encoding="UTF-8" standalone="no"?>
<!-- Generator: Adobe Illustrator 14.0.0, SVG Export Plug-In . SVG Version: 6.00 Build 43363)  -->

<svg
   xmlns:dc="http://purl.org/dc/elements/1.1/"
   xmlns:cc="http://creativecommons.org/ns#"
   xmlns:rdf="http://www.w3.org/1999/02/22-rdf-syntax-ns#"
   xmlns:svg="http://www.w3.org/2000/svg"
   xmlns="http://www.w3.org/2000/svg"
   xmlns:sodipodi="http://sodipodi.sourceforge.net/DTD/sodipodi-0.dtd"
   xmlns:inkscape="http://www.inkscape.org/namespaces/inkscape"
   version="1.1"
   id="icon-m-camera-exposure-plus2-layer"
   x="0px"
   y="0px"
   width="32px"
   height="32px"
   viewBox="0 0 32 32"
   style="enable-background:new 0 0 32 32;"
   xml:space="preserve"
   inkscape:version="0.48.1 r9760"
   sodipodi:docname="icon-m-camera-exposure-plus2.svg"><metadata
   id="metadata6752"><rdf:RDF><cc:Work
       rdf:about=""><dc:format>image/svg+xml</dc:format><dc:type
         rdf:resource="http://purl.org/dc/dcmitype/StillImage" /></cc:Work></rdf:RDF></metadata><defs
   id="defs6750" /><sodipodi:namedview
   pagecolor="#ffffff"
   bordercolor="#666666"
   borderopacity="1"
   objecttolerance="10"
   gridtolerance="10"
   guidetolerance="10"
   inkscape:pageopacity="0"
   inkscape:pageshadow="2"
   inkscape:window-width="806"
   inkscape:window-height="480"
   id="namedview6748"
   showgrid="false"
   inkscape:zoom="7.625"
   inkscape:cx="16"
   inkscape:cy="16"
   inkscape:window-x="0"
   inkscape:window-y="26"
   inkscape:window-maximized="0"
   inkscape:current-layer="icon-m-camera-exposure-plus2-layer" />
<g
   id="icon-m-camera-exposure-plus2">
	<rect
   style="fill:none;"
   width="32"
   height="32"
   id="rect6736" />
	<g
   id="g6738">
		<rect
   style="fill:none;"
   width="32"
   height="32"
   id="rect6740" />
	</g>
	<g
   id="g6742">
		<path
   style="fill:#333333;fill-opacity:1"
   d="M15.546,17.215h-2.77v2.803h-2.073v-2.803H7.917v-2.057h2.786v-2.771h2.073v2.771h2.77V17.215z"
   id="path6744" />
		<path
   style="fill:#333333;fill-opacity:1"
   d="M24.084,21.961H16.6v-1.037c0-2.479,1.507-3.903,3.014-5.167c1.02-0.858,1.7-1.474,1.7-2.478    c0-1.086-0.534-1.686-1.815-1.686c-0.906,0-1.716,0.26-2.493,0.535v-1.604c1.036-0.309,2.09-0.486,3.159-0.486    c2.364,0,3.838,0.955,3.838,3.143c0,1.749-0.955,2.688-2.332,3.855c-1.458,1.23-2.414,2.09-2.527,3.369h4.941V21.961z"
   id="path6746" />
	</g>
</g>
</svg>