<?xml version="1.0" encoding="UTF-8" standalone="no"?>
<!-- Generator: Adobe Illustrator 14.0.0, SVG Export Plug-In . SVG Version: 6.00 Build 43363)  -->

<svg
   xmlns:dc="http://purl.org/dc/elements/1.1/"
   xmlns:cc="http://creativecommons.org/ns#"
   xmlns:rdf="http://www.w3.org/1999/02/22-rdf-syntax-ns#"
   xmlns:svg="http://www.w3.org/2000/svg"
   xmlns="http://www.w3.org/2000/svg"
   xmlns:sodipodi="http://sodipodi.sourceforge.net/DTD/sodipodi-0.dtd"
   xmlns:inkscape="http://www.inkscape.org/namespaces/inkscape"
   version="1.1"
   id="icon-m-camera-exposure-minus2-layer"
   x="0px"
   y="0px"
   width="32px"
   height="32px"
   viewBox="0 0 32 32"
   style="enable-background:new 0 0 32 32;"
   xml:space="preserve"
   inkscape:version="0.48.1 r9760"
   sodipodi:docname="icon-m-camera-exposure-minus2.svg"><metadata
   id="metadata18"><rdf:RDF><cc:Work
       rdf:about=""><dc:format>image/svg+xml</dc:format><dc:type
         rdf:resource="http://purl.org/dc/dcmitype/StillImage" /></cc:Work></rdf:RDF></metadata><defs
   id="defs16" /><sodipodi:namedview
   pagecolor="#ffffff"
   bordercolor="#666666"
   borderopacity="1"
   objecttolerance="10"
   gridtolerance="10"
   guidetolerance="10"
   inkscape:pageopacity="0"
   inkscape:pageshadow="2"
   inkscape:window-width="810"
   inkscape:window-height="480"
   id="namedview14"
   showgrid="false"
   inkscape:zoom="7.625"
   inkscape:cx="16"
   inkscape:cy="16"
   inkscape:window-x="401"
   inkscape:window-y="117"
   inkscape:window-maximized="0"
   inkscape:current-layer="icon-m-camera-exposure-minus2-layer" />
<g
   id="icon-m-camera-exposure-minus2">
	<g
   id="g4">
		<rect
   style="fill:none;"
   width="32"
   height="32"
   id="rect6" />
	</g>
	<g
   id="g8">
		<path
   style="fill:#333333;fill-opacity:1"
   d="M14.04,18.024H9.667V15.87h4.374V18.024z"
   id="path10" />
		<path
   style="fill:#333333;fill-opacity:1"
   d="M22.334,21.961H14.85v-1.037c0-2.479,1.507-3.904,3.013-5.167c1.021-0.858,1.701-1.475,1.701-2.478    c0-1.086-0.535-1.686-1.814-1.686c-0.908,0-1.717,0.26-2.495,0.535v-1.604c1.037-0.309,2.09-0.486,3.159-0.486    c2.365,0,3.838,0.955,3.838,3.143c0,1.749-0.955,2.688-2.332,3.855c-1.457,1.23-2.413,2.089-2.526,3.369h4.94V21.961z"
   id="path12" />
	</g>
</g>
</svg>