<?xml version="1.0" encoding="UTF-8" standalone="no"?>
<!-- Generator: Adobe Illustrator 14.0.0, SVG Export Plug-In . SVG Version: 6.00 Build 43363)  -->

<svg
   xmlns:dc="http://purl.org/dc/elements/1.1/"
   xmlns:cc="http://creativecommons.org/ns#"
   xmlns:rdf="http://www.w3.org/1999/02/22-rdf-syntax-ns#"
   xmlns:svg="http://www.w3.org/2000/svg"
   xmlns="http://www.w3.org/2000/svg"
   xmlns:sodipodi="http://sodipodi.sourceforge.net/DTD/sodipodi-0.dtd"
   xmlns:inkscape="http://www.inkscape.org/namespaces/inkscape"
   version="1.1"
   id="icon-m-camera-exposure-plus13-layer"
   x="0px"
   y="0px"
   width="32px"
   height="32px"
   viewBox="0 0 32 32"
   style="enable-background:new 0 0 32 32;"
   xml:space="preserve"
   inkscape:version="0.48.1 r9760"
   sodipodi:docname="icon-m-camera-exposure-plus13.svg"><metadata
   id="metadata8496"><rdf:RDF><cc:Work
       rdf:about=""><dc:format>image/svg+xml</dc:format><dc:type
         rdf:resource="http://purl.org/dc/dcmitype/StillImage" /></cc:Work></rdf:RDF></metadata><defs
   id="defs8494" /><sodipodi:namedview
   pagecolor="#ffffff"
   bordercolor="#666666"
   borderopacity="1"
   objecttolerance="10"
   gridtolerance="10"
   guidetolerance="10"
   inkscape:pageopacity="0"
   inkscape:pageshadow="2"
   inkscape:window-width="961"
   inkscape:window-height="634"
   id="namedview8492"
   showgrid="false"
   inkscape:zoom="7.625"
   inkscape:cx="-12.393443"
   inkscape:cy="16"
   inkscape:window-x="0"
   inkscape:window-y="26"
   inkscape:window-maximized="0"
   inkscape:current-layer="icon-m-camera-exposure-plus13-layer" />
<g
   id="icon-m-camera-exposure-plus13">
	<g
   id="g8478">
		<rect
   style="fill:none;"
   width="32"
   height="32"
   id="rect8480" />
	</g>
	<g
   id="g8482">
		<path
   style="fill:#333333;fill-opacity:1"
   d="M9.527,17.15h-2.77v2.802H4.685V17.15H1.898v-2.058h2.786v-2.771h2.073v2.771h2.77V17.15z"
   id="path8484" />
		<path
   style="fill:#333333;fill-opacity:1"
   d="M18.356,21.896h-7.451v-1.426H13.4v-8.455l-2.495,0.533v-1.393l3.693-1.15h1.409v10.465h2.349    V21.896z"
   id="path8486" />
		<path
   style="fill:#333333;fill-opacity:1"
   d="M20.544,22.025c-0.794,0-1.425-0.631-1.425-1.426c0-0.793,0.631-1.441,1.425-1.441    s1.441,0.648,1.441,1.441C21.985,21.395,21.338,22.025,20.544,22.025z"
   id="path8488" />
		<path
   style="fill:#333333;fill-opacity:1"
   d="M25.533,11.529c-0.745,0-1.522,0.193-2.3,0.404v-1.57c0.842-0.211,1.83-0.389,2.834-0.389    c2.22,0,3.823,0.744,3.823,2.932c0,1.377-0.762,2.316-2.139,2.736c1.523,0.276,2.35,1.313,2.35,2.754    c0,2.592-1.637,3.629-4.504,3.629c-0.955,0-1.798-0.129-2.721-0.373v-1.57c0.972,0.227,1.733,0.389,2.462,0.389    c1.49,0,2.073-0.713,2.073-2.025c0-1.732-1.004-2.041-3.498-2.041v-1.49c2.396,0,3.352-0.259,3.352-1.83    C27.266,12.031,26.684,11.529,25.533,11.529z"
   id="path8490" />
	</g>
</g>
</svg>