<?xml version="1.0" encoding="UTF-8" standalone="no"?>
<!-- Generator: Adobe Illustrator 14.0.0, SVG Export Plug-In . SVG Version: 6.00 Build 43363)  -->

<svg
   xmlns:dc="http://purl.org/dc/elements/1.1/"
   xmlns:cc="http://creativecommons.org/ns#"
   xmlns:rdf="http://www.w3.org/1999/02/22-rdf-syntax-ns#"
   xmlns:svg="http://www.w3.org/2000/svg"
   xmlns="http://www.w3.org/2000/svg"
   xmlns:sodipodi="http://sodipodi.sourceforge.net/DTD/sodipodi-0.dtd"
   xmlns:inkscape="http://www.inkscape.org/namespaces/inkscape"
   version="1.1"
   id="icon-m-camera-exposure-plus07-layer"
   x="0px"
   y="0px"
   width="32px"
   height="32px"
   viewBox="0 0 32 32"
   style="enable-background:new 0 0 32 32;"
   xml:space="preserve"
   inkscape:version="0.48.1 r9760"
   sodipodi:docname="icon-m-camera-exposure-plus07.svg"><metadata
   id="metadata7916"><rdf:RDF><cc:Work
       rdf:about=""><dc:format>image/svg+xml</dc:format><dc:type
         rdf:resource="http://purl.org/dc/dcmitype/StillImage" /></cc:Work></rdf:RDF></metadata><defs
   id="defs7914" /><sodipodi:namedview
   pagecolor="#ffffff"
   bordercolor="#666666"
   borderopacity="1"
   objecttolerance="10"
   gridtolerance="10"
   guidetolerance="10"
   inkscape:pageopacity="0"
   inkscape:pageshadow="2"
   inkscape:window-width="806"
   inkscape:window-height="480"
   id="namedview7912"
   showgrid="false"
   inkscape:zoom="7.625"
   inkscape:cx="16"
   inkscape:cy="16"
   inkscape:window-x="0"
   inkscape:window-y="26"
   inkscape:window-maximized="0"
   inkscape:current-layer="icon-m-camera-exposure-plus07-layer" />
<g
   id="icon-m-camera-exposure-plus07">
	<rect
   style="fill:none;"
   width="32"
   height="32"
   id="rect7896" />
	<g
   id="g7898">
		<rect
   style="fill:none;"
   width="32"
   height="32"
   id="rect7900" />
	</g>
	<g
   id="g7902">
		<path
   style="fill:#333333;fill-opacity:1"
   d="M9.447,17.15h-2.77v2.802H4.604V17.15H1.818v-2.058h2.786v-2.771h2.073v2.771h2.77V17.15z"
   id="path7904" />
		<path
   style="fill:#333333;fill-opacity:1"
   d="M14.388,22.01c-3.677,0-3.984-3.127-3.984-6.155c0-2.737,0.438-5.88,4.049-5.88    c3.563,0,3.953,3.109,3.953,5.88C18.406,18.916,18.033,22.01,14.388,22.01z M14.388,11.448c-1.279,0-1.36,1.717-1.36,4.406    c0,3.126,0.129,4.681,1.36,4.681c1.214,0,1.328-1.555,1.328-4.681C15.716,13.148,15.652,11.448,14.388,11.448z"
   id="path7906" />
		<path
   style="fill:#333333;fill-opacity:1"
   d="M20.463,22.025c-0.793,0-1.425-0.631-1.425-1.426c0-0.793,0.632-1.441,1.425-1.441    c0.795,0,1.441,0.648,1.441,1.441C21.904,21.395,21.258,22.025,20.463,22.025z"
   id="path7908" />
		<path
   style="fill:#333333;fill-opacity:1"
   d="M30.182,11.383c-1.879,3.207-3.012,6.414-3.125,10.514h-2.77c0.096-3.759,1.44-7.42,3.142-10.189    h-4.714v-1.604h7.467V11.383z"
   id="path7910" />
	</g>
</g>
</svg>